<?xml version="1.0" encoding="UTF-8" standalone="no"?>
<svg
   xmlns:dc="http://purl.org/dc/elements/1.1/"
   xmlns:cc="http://creativecommons.org/ns#"
   xmlns:rdf="http://www.w3.org/1999/02/22-rdf-syntax-ns#"
   xmlns:svg="http://www.w3.org/2000/svg"
   xmlns="http://www.w3.org/2000/svg"
   xmlns:sodipodi="http://sodipodi.sourceforge.net/DTD/sodipodi-0.dtd"
   xmlns:inkscape="http://www.inkscape.org/namespaces/inkscape"
   height="2159.0908"
   width="2500"
   viewBox="0 36 528 393.81817"
   version="1.1"
   id="svg36"
   sodipodi:docname="classroom.svg"
   inkscape:version="1.0.1 (3bc2e813f5, 2020-09-07)">
  <metadata
     id="metadata42">
    <rdf:RDF>
      <cc:Work
         rdf:about="">
        <dc:format>image/svg+xml</dc:format>
        <dc:type
           rdf:resource="http://purl.org/dc/dcmitype/StillImage" />
      </cc:Work>
    </rdf:RDF>
  </metadata>
  <defs
     id="defs40" />
  <sodipodi:namedview
     pagecolor="#ffffff"
     bordercolor="#666666"
     borderopacity="1"
     objecttolerance="10"
     gridtolerance="10"
     guidetolerance="10"
     inkscape:pageopacity="0"
     inkscape:pageshadow="2"
     inkscape:window-width="1920"
     inkscape:window-height="1057"
     id="namedview38"
     showgrid="false"
     inkscape:zoom="0.25173001"
     inkscape:cx="1748.4098"
     inkscape:cy="1547.9362"
     inkscape:window-x="-8"
     inkscape:window-y="-8"
     inkscape:window-maximized="1"
     inkscape:current-layer="svg36" />
  <linearGradient
     id="a"
     x1="216.26632"
     x2="216.26632"
     y1="801.37389"
     y2="887.58267"
     gradientTransform="scale(1.8021977,0.55487807)"
     gradientUnits="userSpaceOnUse">
    <stop
       offset="0"
       stop-color="#bf360c"
       stop-opacity=".2"
       id="stop2" />
    <stop
       offset="1"
       stop-color="#bf360c"
       stop-opacity=".02"
       id="stop4" />
  </linearGradient>
  <radialGradient
     id="b"
     cx="16.717507"
     cy="50.239553"
     gradientTransform="scale(1.0760552,0.92932038)"
     r="2344.2097"
     fx="16.717507"
     fy="50.239553"
     gradientUnits="userSpaceOnUse">
    <stop
       offset="0"
       stop-color="#fff"
       stop-opacity=".1"
       id="stop7" />
    <stop
       offset="1"
       stop-color="#fff"
       stop-opacity="0"
       id="stop9" />
  </radialGradient>
  <g
     fill="none"
     id="g34"
     transform="translate(0,-30.9312)">
    <path
       d="M 48,84 H 480 V 444 H 48 Z"
       fill="#0f9d58"
       id="path12" />
    <path
       d="m 360,276 c 14.9,0 27,-12.1 27,-27 0,-14.9 -12.1,-27 -27,-27 -14.9,0 -27,12.1 -27,27 0,14.9 12.1,27 27,27 z m 0,18 c -28.9,0 -60,15.3 -60,34.3 V 348 H 420 V 328.3 C 420,309.3 388.9,294 360,294 Z M 168,276 c 14.9,0 27,-12.1 27,-27 0,-14.9 -12.1,-27 -27,-27 -14.9,0 -27,12.1 -27,27 0,14.9 12.1,27 27,27 z m 0,18 c -28.9,0 -60,15.3 -60,34.3 V 348 h 120 v -19.7 c 0,-19 -31.1,-34.3 -60,-34.3 z"
       fill="#57bb8a"
       id="path14" />
    <path
       d="m 264,252 c 19.9,0 36,-16.1 36,-36 0,-19.9 -16.1,-36 -36,-36 -19.9,0 -36,16.1 -36,36 0,19.9 16.1,36 36,36 z m 0,24 c -40.5,0 -84,21.5 -84,48 v 24 h 168 v -24 c 0,-26.5 -43.5,-48 -84,-48 z"
       fill="#f7f7f7"
       id="path16" />
    <path
       d="m 312,420 h 108 v 24 H 312 Z"
       fill="#f1f1f1"
       id="path18" />
    <path
       d="M 492,36 H 36 C 16.1,36 0,52.1 0,72 v 384 c 0,19.9 16.1,36 36,36 h 456 c 19.9,0 36,-16.1 36,-36 V 72 C 528,52.1 511.9,36 492,36 Z M 480,444 H 48 V 84 h 432 z"
       fill="#f4b400"
       id="path20" />
    <path
       d="M 492,36 H 36 C 16.1,36 0,52.1 0,72 v 3 C 0,55.1 16.1,39 36,39 h 456 c 19.9,0 36,16.1 36,36 V 72 C 528,52.1 511.9,36 492,36 Z"
       fill="#ffffff"
       opacity="0.2"
       id="path22" />
    <path
       d="M 492,489 H 36 C 16.1,489 0,472.9 0,453 v 3 c 0,19.9 16.1,36 36,36 h 456 c 19.9,0 36,-16.1 36,-36 v -3 c 0,19.9 -16.1,36 -36,36 z"
       fill="#bf360c"
       opacity="0.2"
       id="path24" />
    <path
       d="m 419.8,444 h -108 l 48,48 h 107.9 z"
       fill="url(#a)"
       id="path26"
       style="fill:url(#a)" />
    <path
       d="m 48,81 h 432 v 3 H 48 Z"
       fill="#263238"
       opacity="0.2"
       id="path28" />
    <path
       d="m 48,444 h 432 v 3 H 48 Z"
       fill="#ffffff"
       opacity="0.2"
       id="path30" />
    <path
       d="M 492,36 H 36 C 16.1,36 0,52.1 0,72 v 384 c 0,19.9 16.1,36 36,36 h 456 c 19.9,0 36,-16.1 36,-36 V 72 C 528,52.1 511.9,36 492,36 Z"
       fill="url(#b)"
       id="path32"
       style="fill:url(#b)" />
  </g>
</svg>
