<?xml version="1.0" encoding="UTF-8" standalone="no"?>
<svg
   xmlns:dc="http://purl.org/dc/elements/1.1/"
   xmlns:cc="http://creativecommons.org/ns#"
   xmlns:rdf="http://www.w3.org/1999/02/22-rdf-syntax-ns#"
   xmlns:svg="http://www.w3.org/2000/svg"
   xmlns="http://www.w3.org/2000/svg"
   xmlns:sodipodi="http://sodipodi.sourceforge.net/DTD/sodipodi-0.dtd"
   xmlns:inkscape="http://www.inkscape.org/namespaces/inkscape"
   height="2399.5847"
   viewBox="14.32 4.8796149 25.349678 50.67"
   width="1674.0741"
   version="1.1"
   id="svg12"
   sodipodi:docname="maps.svg"
   inkscape:version="1.0.1 (3bc2e813f5, 2020-09-07)">
  <metadata
     id="metadata18">
    <rdf:RDF>
      <cc:Work
         rdf:about="">
        <dc:format>image/svg+xml</dc:format>
        <dc:type
           rdf:resource="http://purl.org/dc/dcmitype/StillImage" />
      </cc:Work>
    </rdf:RDF>
  </metadata>
  <defs
     id="defs16" />
  <sodipodi:namedview
     pagecolor="#ffffff"
     bordercolor="#666666"
     borderopacity="1"
     objecttolerance="10"
     gridtolerance="10"
     guidetolerance="10"
     inkscape:pageopacity="0"
     inkscape:pageshadow="2"
     inkscape:window-width="1920"
     inkscape:window-height="1057"
     id="namedview14"
     showgrid="false"
     inkscape:zoom="2.0138401"
     inkscape:cx="162.00658"
     inkscape:cy="899.86509"
     inkscape:window-x="-8"
     inkscape:window-y="-8"
     inkscape:window-maximized="1"
     inkscape:current-layer="svg12" />
  <path
     d="m 32.364635,5.6996149 c -1.68,-0.53 -3.48,-0.82 -5.34,-0.82 -5.43,0 -10.29,2.45 -13.54,6.3100001 l 8.35,7.02 z"
     fill="#1a73e8"
     id="path2" />
  <path
     d="m 13.484635,11.189615 a 17.615,17.615 0 0 0 -4.1399826,11.36 c 0,3.32 0.6599996,6.02 1.7499926,8.43 l 10.73999,-12.77 z"
     fill="#ea4335"
     id="path4" />
  <path
     d="m 27.024635,15.799615 a 6.764,6.764 0 0 1 5.16,11.13 l 10.52,-12.51 a 17.684,17.684 0 0 0 -10.35,-8.7100001 l -10.51,12.5100001 a 6.74,6.74 0 0 1 5.18,-2.42"
     fill="#4285f4"
     id="path6" />
  <path
     d="m 27.024635,29.319615 c -3.73,0 -6.76,-3.03 -6.76,-6.76 a 6.7,6.7 0 0 1 1.58,-4.34 l -10.74999,12.77 c 1.83999,4.07 4.88999,7.34 8.02999,11.46 l 13.06,-15.52 a 6.752,6.752 0 0 1 -5.16,2.39"
     fill="#fbbc04"
     id="path8" />
  <path
     d="m 31.924635,46.679615 c 5.9,-9.22 12.77,-13.41 12.77,-24.13 0,-2.94 -0.72,-5.71 -1.99,-8.15 l -23.57,28.05 c 1,1.31 2.01,2.7 2.99,4.24 3.58,5.54 2.59,8.86 4.9,8.86 2.31,0 1.32,-3.33 4.9,-8.87"
     fill="#34a853"
     id="path10" />
</svg>
