<?xml version="1.0" encoding="UTF-8" standalone="no"?>
<svg
   xmlns:dc="http://purl.org/dc/elements/1.1/"
   xmlns:cc="http://creativecommons.org/ns#"
   xmlns:rdf="http://www.w3.org/1999/02/22-rdf-syntax-ns#"
   xmlns:svg="http://www.w3.org/2000/svg"
   xmlns="http://www.w3.org/2000/svg"
   xmlns:sodipodi="http://sodipodi.sourceforge.net/DTD/sodipodi-0.dtd"
   xmlns:inkscape="http://www.inkscape.org/namespaces/inkscape"
   height="2032.1288"
   width="2484.552"
   viewBox="1.135 48.867 506.41928 336.71073"
   version="1.1"
   id="svg41"
   sodipodi:docname="news.svg"
   inkscape:version="1.0.1 (3bc2e813f5, 2020-09-07)">
  <metadata
     id="metadata47">
    <rdf:RDF>
      <cc:Work
         rdf:about="">
        <dc:format>image/svg+xml</dc:format>
        <dc:type
           rdf:resource="http://purl.org/dc/dcmitype/StillImage" />
      </cc:Work>
    </rdf:RDF>
  </metadata>
  <defs
     id="defs45" />
  <sodipodi:namedview
     pagecolor="#ffffff"
     bordercolor="#666666"
     borderopacity="1"
     objecttolerance="10"
     gridtolerance="10"
     guidetolerance="10"
     inkscape:pageopacity="0"
     inkscape:pageshadow="2"
     inkscape:window-width="1920"
     inkscape:window-height="1057"
     id="namedview43"
     showgrid="false"
     inkscape:zoom="2.848"
     inkscape:cx="1296.1443"
     inkscape:cy="112.96278"
     inkscape:window-x="-8"
     inkscape:window-y="-8"
     inkscape:window-maximized="1"
     inkscape:current-layer="svg41" />
  <radialGradient
     id="a"
     cx="105.79952"
     cy="91.18247"
     gradientTransform="scale(1.1057125,0.9043942)"
     r="445.25749"
     fx="105.79952"
     fy="91.18247"
     gradientUnits="userSpaceOnUse">
    <stop
       offset="0"
       stop-color="#fff"
       stop-opacity=".1"
       id="stop2" />
    <stop
       offset="1"
       stop-color="#fff"
       stop-opacity="0"
       id="stop4" />
  </radialGradient>
  <g
     fill="none"
     id="g39"
     transform="translate(-1.660393,-38.729487)">
    <path
       d="m 405.573,329.866 c -0.047,7.1 -5.816,12.829 -12.915,12.829 H 119.4 c -7.122,0.032 -12.926,-5.707 -12.973,-12.829 V 61.728 c 0.047,-7.1 5.816,-12.83 12.915,-12.83 H 392.6 c 7.122,-0.031 12.926,5.708 12.973,12.83 z"
       fill="#0c9d58"
       id="path7" />
    <path
       d="M 405.573,117.818 303.144,104.644 405.573,132.142 Z M 260.947,62.878 105.823,132.142 277.257,69.752 V 69.58 c -2.672,-6.335 -9.955,-9.328 -16.31,-6.702 z"
       fill="#004d40"
       opacity="0.2"
       id="path9" />
    <path
       d="M 392.658,48.899 H 119.4 c -7.122,-0.032 -12.926,5.707 -12.973,12.829 v 2.876 c 0.047,-7.099 5.816,-12.829 12.915,-12.829 H 392.6 c 7.122,-0.032 12.926,5.707 12.973,12.829 v -2.876 c -0.047,-7.1 -5.816,-12.83 -12.915,-12.83 z"
       fill="#fff"
       opacity=".2"
       id="path11" />
    <path
       d="m 172.757,321.64 c -2.026,6.574 1.636,13.551 8.198,15.618 l 253.123,68.085 c 6.716,1.484 13.37,-2.73 14.9,-9.435 l 59.628,-222.576 c 2.033,-6.55 -1.584,-13.515 -8.112,-15.619 L 247.371,89.63 c -6.716,-1.485 -13.37,2.729 -14.9,9.434 z"
       fill="#ea4335"
       id="path13" />
    <path
       d="m 451.596,252.778 13.317,80.885 -13.317,49.704 z m -147.272,-144.827 11.937,3.222 7.42,49.906 z"
       fill="#3e2723"
       opacity="0.2"
       id="path15" />
    <path
       d="M 500.494,157.713 247.371,89.63 c -6.716,-1.485 -13.37,2.729 -14.9,9.434 L 172.757,321.64 c 0,0.373 0,0.747 -0.201,1.121 l 59.196,-220.908 c 1.53,-6.705 8.184,-10.919 14.9,-9.434 l 253.123,68.084 a 12.397,12.397 0 0 1 8.37,14.382 l 0.46,-1.697 c 1.942,-6.504 -1.657,-13.37 -8.11,-15.475 z"
       fill="#fff"
       opacity=".2"
       id="path17" />
    <path
       d="m 372.12,294.227 c 2.598,6.37 -0.434,13.643 -6.788,16.28 L 98.2,407.73 c -6.558,2.073 -13.56,-1.537 -15.676,-8.082 L 3.711,183.083 c -2.576,-6.37 0.468,-13.625 6.817,-16.252 L 277.659,69.61 c 6.568,-2.113 13.607,1.49 15.734,8.054 l 78.727,216.564 z"
       fill="#ffc107"
       id="path19" />
    <path
       d="m 4.717,185.816 c -2.578,-6.362 0.45,-13.614 6.789,-16.252 L 278.637,72.342 c 6.467,-2.034 13.375,1.464 15.562,7.88 l -0.806,-2.56 c -2.115,-6.544 -9.117,-10.155 -15.676,-8.082 l -267.19,97.251 c -6.353,2.638 -9.385,9.91 -6.788,16.28 l 78.814,216.537 v 0.201 z"
       fill="#fff"
       opacity=".2"
       id="path21" />
    <rect
       fill="#4285f4"
       height="302.022"
       rx="12.944"
       width="391.19101"
       x="60.403999"
       y="161.07899"
       id="rect23" />
    <path
       d="m 272.54,241.618 h 109.303 a 5.753,5.753 0 0 1 5.753,5.753 v 17.258 a 5.753,5.753 0 0 1 -5.753,5.753 H 272.539 v -28.764 z m 0,109.303 h 109.303 a 5.753,5.753 0 0 1 5.753,5.753 v 17.259 a 5.753,5.753 0 0 1 -5.753,5.752 H 272.539 v -28.764 z m 0,-54.651 H 399.1 a 5.753,5.753 0 0 1 5.753,5.752 v 17.259 a 5.753,5.753 0 0 1 -5.753,5.753 H 272.54 Z"
       fill="#fff"
       id="path25" />
    <path
       d="M 438.652,460.225 H 73.348 C 66.206,460.209 60.42,454.423 60.404,447.281 v 2.876 c 0.016,7.142 5.802,12.928 12.944,12.944 h 365.304 c 7.142,-0.016 12.928,-5.802 12.944,-12.944 v -2.876 c -0.016,7.142 -5.802,12.928 -12.944,12.944 z"
       fill="#1a237e"
       opacity="0.2"
       id="path27" />
    <path
       d="m 73.348,163.955 h 365.304 c 7.142,0.016 12.928,5.802 12.944,12.944 v -2.877 c -0.016,-7.142 -5.802,-12.928 -12.944,-12.943 H 73.348 c -7.142,0.015 -12.928,5.801 -12.944,12.943 v 2.877 c 0.016,-7.142 5.802,-12.928 12.944,-12.944 z"
       fill="#fff"
       opacity=".2"
       id="path29" />
    <path
       d="m 174.742,299.146 v 25.888 h 37.22 c -3.078,15.82 -16.97,27.268 -37.22,27.268 -23.035,0 -41.708,-18.673 -41.708,-41.708 0,-23.034 18.673,-41.708 41.708,-41.708 a 37.393,37.393 0 0 1 26.606,10.413 l 19.704,-19.703 a 66.157,66.157 0 0 0 -46.31,-17.978 69.034,69.034 0 1 0 0,138.067 c 39.867,0 66.157,-28.016 66.157,-67.451 a 82.121,82.121 0 0 0 -1.093,-13.088 z"
       fill="#fff"
       id="path31" />
    <path
       d="m 175.46,325.034 v 2.876 h 36.531 c 0.268,-0.94 0.499,-1.898 0.69,-2.876 h -37.22 z"
       fill="#1a237e"
       opacity="0.2"
       id="path33" />
    <path
       d="m 175.46,379.685 c -37.57,0.009 -68.25,-30.032 -69.033,-67.595 v 1.438 c 0,38.126 30.907,69.034 69.034,69.034 39.867,0 66.157,-28.016 66.157,-67.452 v -0.92 c -0.95,38.4 -26.952,65.495 -66.157,65.495 z m 26.492,-100.386 a 37.393,37.393 0 0 0 -26.491,-10.355 c -22.757,0.362 -40.997,18.948 -40.932,41.708 v 1.438 c 0.674,-22.178 18.66,-39.911 40.845,-40.27 a 37.393,37.393 0 0 1 26.492,10.355 l 21.142,-21.141 c -0.49,-0.46 -1.036,-0.863 -1.554,-1.323 l -19.588,19.588 z m 185.644,-11.793 v -2.877 a 5.753,5.753 0 0 1 -5.753,5.753 H 272.539 v 2.876 h 109.304 a 5.753,5.753 0 0 0 5.753,-5.752 z m -5.753,112.179 H 272.539 v 2.877 h 109.304 a 5.753,5.753 0 0 0 5.753,-5.753 v -2.876 a 5.753,5.753 0 0 1 -5.753,5.752 z m 17.258,-54.651 H 272.54 v 2.876 h 126.562 a 5.753,5.753 0 0 0 5.753,-5.753 v -2.876 a 5.753,5.753 0 0 1 -5.753,5.753 z"
       fill="#1a237e"
       opacity="0.2"
       id="path35" />
    <path
       d="M 500.494,157.713 405.573,132.315 V 61.728 c -0.047,-7.1 -5.816,-12.83 -12.915,-12.83 H 119.4 c -7.122,-0.031 -12.926,5.708 -12.973,12.83 v 70.184 l -95.9,34.92 c -6.353,2.637 -9.385,9.91 -6.788,16.28 L 60.404,338.84 v 111.317 c 0.016,7.142 5.802,12.928 12.944,12.944 h 365.304 c 7.142,-0.016 12.928,-5.802 12.944,-12.944 V 386.244 L 508.635,173.39 c 2.068,-6.576 -1.572,-13.586 -8.14,-15.677 z"
       fill="url(#a)"
       id="path37"
       style="fill:url(#a)" />
  </g>
</svg>
