<?xml version="1.0" encoding="UTF-8" standalone="no"?>
<svg
   xmlns:dc="http://purl.org/dc/elements/1.1/"
   xmlns:cc="http://creativecommons.org/ns#"
   xmlns:rdf="http://www.w3.org/1999/02/22-rdf-syntax-ns#"
   xmlns:svg="http://www.w3.org/2000/svg"
   xmlns="http://www.w3.org/2000/svg"
   xmlns:sodipodi="http://sodipodi.sourceforge.net/DTD/sodipodi-0.dtd"
   xmlns:inkscape="http://www.inkscape.org/namespaces/inkscape"
   height="1379.4713"
   viewBox="0 0.03 1995.8138 1380.8342"
   width="1994.2158"
   version="1.1"
   id="svg8"
   sodipodi:docname="youtube.svg"
   inkscape:version="1.0.1 (3bc2e813f5, 2020-09-07)">
  <metadata
     id="metadata14">
    <rdf:RDF>
      <cc:Work
         rdf:about="">
        <dc:format>image/svg+xml</dc:format>
        <dc:type
           rdf:resource="http://purl.org/dc/dcmitype/StillImage" />
      </cc:Work>
    </rdf:RDF>
  </metadata>
  <defs
     id="defs12" />
  <sodipodi:namedview
     pagecolor="#ffffff"
     bordercolor="#666666"
     borderopacity="1"
     objecttolerance="10"
     gridtolerance="10"
     guidetolerance="10"
     inkscape:pageopacity="0"
     inkscape:pageshadow="2"
     inkscape:window-width="1920"
     inkscape:window-height="1057"
     id="namedview10"
     showgrid="false"
     inkscape:zoom="0.25173001"
     inkscape:cx="977.64752"
     inkscape:cy="985.32845"
     inkscape:window-x="-8"
     inkscape:window-y="-8"
     inkscape:window-maximized="1"
     inkscape:current-layer="svg8" />
  <path
     d="M -251.15561,-558.80476 H 2246.8444 V 1939.1952 H -251.15561 Z"
     fill="none"
     id="path4" />
  <path
     d="m 1042.0844,1379.0552 -409.54001,-7.49 c -132.6,-2.61 -265.53,2.6 -395.53,-24.44 -197.759997,-40.4 -211.769997,-238.49 -226.429997,-404.64996 -20.2000003,-233.6 -12.3800003,-471.44 25.74,-703.09 21.52,-129.98 106.209997,-207.539997 237.179997,-215.979997 442.12,-30.63 887.18001,-27 1328.32001,-12.71 46.59,1.31 93.5,8.47 139.44,16.62 226.77,39.75 232.3,264.229997 247,453.199997 14.66,190.92 8.47,382.82 -19.55,572.43996 -22.48,157 -65.49,288.66 -247,301.37 -227.42,16.62 -449.62,30 -677.68,25.74 0.01,-1.01 -1.3,-1.01 -1.95,-1.01 z M 801.31441,981.57524 c 171.38,-98.4 339.48999,-195.16 509.88999,-292.9 -171.7,-98.4 -339.48999,-195.16 -509.88999,-292.9 z"
     fill="#ff0000"
     id="path6" />
</svg>
